#!OML:ASF F:\VICON\USERDATA\INSTALL\rory3\rory3.ASF
:FULLY-SPECIFIED
:DEGREES
1579
root -0.484146 18.3093 3.74959 -0.667999 -2.71886 -0.260594
lowerback 5.07874 0.284595 -3.03042
upperback -2.82298 0.16704 0.296602
thorax -5.79863 0.2069 1.99331
lowerneck -11.4362 0.0763814 -7.89321
upperneck 26.3927 -0.278425 8.0691
head 10.2853 0.0156295 4.21285
rclavicle 4.43538e-015 1.09332e-014
rhumerus -26.0696 -57.3659 19.1737
rradius 18.6148
rwrist -1.67573
rhand -31.9813 -6.87835
rfingers 7.12502
rthumb -5.23072 -36.7938
lclavicle 4.43538e-015 1.09332e-014
lhumerus -17.6801 45.9622 -14.128
lradius 21.0444
lwrist 26.5051
lhand -22.0551 23.6894
lfingers 7.12502
lthumb 4.35558 53.6246
rfemur -0.416572 28.1497 9.8516
rtibia 17.3377
rfoot -19.2305 -15.8387
rtoes -5.62233
lfemur 2.53415 -18.3071 -9.09907
ltibia 16.4886
lfoot -23.9881 30.1801
ltoes -3.95158
1580
root -0.482555 18.3048 3.75017 -0.887499 -2.6989 -0.289548
lowerback 5.1225 0.2862 -2.97833
upperback -2.8113 0.170486 0.271408
thorax -5.81107 0.20608 1.9374
lowerneck -11.532 0.0703159 -7.77757
upperneck 26.6523 -0.29237 7.97755
head 10.4012 0.00927668 4.16913
rclavicle 1.04238e-014 -8.94531e-015
rhumerus -23.5075 -57.9622 17.8359
rradius 18.7376
rwrist -2.25008
rhand -32.4081 -6.94358
rfingers 7.12502
rthumb -5.64272 -36.8484
lclavicle 1.04238e-014 -8.94531e-015
lhumerus -15.2513 45.777 -13.0398
lradius 21.1509
lwrist 27.1905
lhand -22.472 23.9694
lfingers 7.12502
lthumb 3.953 53.9125
rfemur -0.185362 28.1289 10.0033
rtibia 17.4101
rfoot -19.287 -15.8052
rtoes -5.67872
lfemur 2.71004 -18.1654 -9.11012
ltibia 16.5988
lfoot -23.9049 30.0148
ltoes -4.09947
1581
root -0.481151 18.3009 3.74879 -1.08949 -2.63678 -0.285866
lowerback 5.17364 0.267527 -2.97783
upperback -2.79668 0.142951 0.25072
thorax -5.82332 0.192027 1.91834
lowerneck -11.7106 0.033523 -7.72453
upperneck 26.9005 -0.346251 7.94668
head 10.5335 -0.013493 4.15457
rclavicle -3.10601e-016 1.23246e-014
rhumerus -20.7674 -58.4028 16.2651
rradius 18.8701
rwrist -2.93517
rhand -32.9719 -6.87125
rfingers 7.12502
rthumb -6.18708 -36.7609
lclavicle -3.10601e-016 1.23246e-014
lhumerus -12.8701 46.3092 -12.0634
lradius 21.122
lwrist 27.2003
lhand -22.437 24.0281
lfingers 7.12502
lthumb 3.98677 53.9705
rfemur 0.0443358 28.0976 10.1107
rtibia 17.4816
rfoot -19.3771 -15.7385
rtoes -5.41349
lfemur 2.86975 -18.1786 -9.16633
ltibia 16.6794
lfoot -23.8585 29.9549
ltoes -4.32751
1582
root -0.479952 18.2979 3.74622 -1.26727 -2.5536 -0.250588
lowerback 5.15507 0.232546 -3.01081
upperback -2.75802 0.0942777 0.239664
thorax -5.76938 0.167748 1.93027
lowerneck -11.8505 0.0139259 -7.75549
upperneck 27.0397 -0.37587 7.99426
head 10.6155 -0.024008 4.18154
rclavicle -1.46355e-014 2.70347e-014
rhumerus -17.7913 -58.8962 14.4479
rradius 18.977
rwrist -3.54862
rhand -33.3427 -6.40391
rfingers 7.12502
rthumb -6.54501 -36.2828
lclavicle -1.46355e-014 2.70347e-014
lhumerus -10.5221 46.8237 -11.0442
lradius 21.0908
lwrist 27.1709
lhand -22.1999 24.0712
lfingers 7.12502
lthumb 4.21576 54.0093
rfemur 0.213788 27.9632 10.1545
rtibia 17.5844
rfoot -19.4544 -15.6289
rtoes -5.26139
lfemur 3.01129 -18.1876 -9.24113
ltibia 16.6963
lfoot -23.8026 29.8737
ltoes -4.53018
